<mxfile host="app.diagrams.net" agent="Mozilla/5.0 (Windows NT 10.0; Win64; x64) AppleWebKit/537.36 (KHTML, like Gecko) Chrome/134.0.0.0 Safari/537.36" version="26.1.1">
  <diagram id="C5RBs43oDa-KdzZeNtuy" name="Page-1">
    <mxGraphModel dx="1886" dy="2432" grid="1" gridSize="10" guides="1" tooltips="1" connect="1" arrows="1" fold="1" page="1" pageScale="1" pageWidth="1169" pageHeight="827" math="0" shadow="0">
      <root>
        <mxCell id="WIyWlLk6GJQsqaUBKTNV-0" />
        <mxCell id="WIyWlLk6GJQsqaUBKTNV-1" parent="WIyWlLk6GJQsqaUBKTNV-0" />
        <mxCell id="W4Zjn9NjiA4wPW8pre9K-42" value="Client" style="swimlane;fontStyle=1;align=center;verticalAlign=top;childLayout=stackLayout;horizontal=1;startSize=26;horizontalStack=0;resizeParent=1;resizeParentMax=0;resizeLast=0;collapsible=1;marginBottom=0;whiteSpace=wrap;html=1;" parent="WIyWlLk6GJQsqaUBKTNV-1" vertex="1">
          <mxGeometry x="520" y="-500" width="160" height="66" as="geometry" />
        </mxCell>
        <mxCell id="W4Zjn9NjiA4wPW8pre9K-44" value="" style="line;strokeWidth=1;fillColor=none;align=left;verticalAlign=middle;spacingTop=-1;spacingLeft=3;spacingRight=3;rotatable=0;labelPosition=right;points=[];portConstraint=eastwest;strokeColor=inherit;" parent="W4Zjn9NjiA4wPW8pre9K-42" vertex="1">
          <mxGeometry y="26" width="160" height="8" as="geometry" />
        </mxCell>
        <mxCell id="W4Zjn9NjiA4wPW8pre9K-45" value="+exit_app()" style="text;strokeColor=none;fillColor=none;align=left;verticalAlign=top;spacingLeft=4;spacingRight=4;overflow=hidden;rotatable=0;points=[[0,0.5],[1,0.5]];portConstraint=eastwest;whiteSpace=wrap;html=1;" parent="W4Zjn9NjiA4wPW8pre9K-42" vertex="1">
          <mxGeometry y="34" width="160" height="32" as="geometry" />
        </mxCell>
        <mxCell id="W4Zjn9NjiA4wPW8pre9K-46" value="EView" style="swimlane;fontStyle=0;childLayout=stackLayout;horizontal=1;startSize=26;fillColor=none;horizontalStack=0;resizeParent=1;resizeParentMax=0;resizeLast=0;collapsible=1;marginBottom=0;whiteSpace=wrap;html=1;" parent="WIyWlLk6GJQsqaUBKTNV-1" vertex="1">
          <mxGeometry x="260" y="-222" width="140" height="156" as="geometry" />
        </mxCell>
        <mxCell id="W4Zjn9NjiA4wPW8pre9K-49" value="+main" style="text;strokeColor=none;fillColor=none;align=left;verticalAlign=top;spacingLeft=4;spacingRight=4;overflow=hidden;rotatable=0;points=[[0,0.5],[1,0.5]];portConstraint=eastwest;whiteSpace=wrap;html=1;" parent="W4Zjn9NjiA4wPW8pre9K-46" vertex="1">
          <mxGeometry y="26" width="140" height="26" as="geometry" />
        </mxCell>
        <mxCell id="W4Zjn9NjiA4wPW8pre9K-47" value="+lobby" style="text;strokeColor=none;fillColor=none;align=left;verticalAlign=top;spacingLeft=4;spacingRight=4;overflow=hidden;rotatable=0;points=[[0,0.5],[1,0.5]];portConstraint=eastwest;whiteSpace=wrap;html=1;" parent="W4Zjn9NjiA4wPW8pre9K-46" vertex="1">
          <mxGeometry y="52" width="140" height="26" as="geometry" />
        </mxCell>
        <mxCell id="W4Zjn9NjiA4wPW8pre9K-48" value="+help" style="text;strokeColor=none;fillColor=none;align=left;verticalAlign=top;spacingLeft=4;spacingRight=4;overflow=hidden;rotatable=0;points=[[0,0.5],[1,0.5]];portConstraint=eastwest;whiteSpace=wrap;html=1;" parent="W4Zjn9NjiA4wPW8pre9K-46" vertex="1">
          <mxGeometry y="78" width="140" height="26" as="geometry" />
        </mxCell>
        <mxCell id="W4Zjn9NjiA4wPW8pre9K-50" value="+game" style="text;strokeColor=none;fillColor=none;align=left;verticalAlign=top;spacingLeft=4;spacingRight=4;overflow=hidden;rotatable=0;points=[[0,0.5],[1,0.5]];portConstraint=eastwest;whiteSpace=wrap;html=1;" parent="W4Zjn9NjiA4wPW8pre9K-46" vertex="1">
          <mxGeometry y="104" width="140" height="26" as="geometry" />
        </mxCell>
        <mxCell id="frSgxrHvrcFcjkGgJCsm-52" value="+results" style="text;strokeColor=none;fillColor=none;align=left;verticalAlign=top;spacingLeft=4;spacingRight=4;overflow=hidden;rotatable=0;points=[[0,0.5],[1,0.5]];portConstraint=eastwest;whiteSpace=wrap;html=1;" parent="W4Zjn9NjiA4wPW8pre9K-46" vertex="1">
          <mxGeometry y="130" width="140" height="26" as="geometry" />
        </mxCell>
        <mxCell id="frSgxrHvrcFcjkGgJCsm-5" value="UIRenderer" style="swimlane;fontStyle=1;align=center;verticalAlign=top;childLayout=stackLayout;horizontal=1;startSize=26;horizontalStack=0;resizeParent=1;resizeParentMax=0;resizeLast=0;collapsible=1;marginBottom=0;whiteSpace=wrap;html=1;" parent="WIyWlLk6GJQsqaUBKTNV-1" vertex="1">
          <mxGeometry x="260" y="-360" width="160" height="86" as="geometry" />
        </mxCell>
        <mxCell id="frSgxrHvrcFcjkGgJCsm-6" value="-active_view: EView" style="text;strokeColor=none;fillColor=none;align=left;verticalAlign=top;spacingLeft=4;spacingRight=4;overflow=hidden;rotatable=0;points=[[0,0.5],[1,0.5]];portConstraint=eastwest;whiteSpace=wrap;html=1;" parent="frSgxrHvrcFcjkGgJCsm-5" vertex="1">
          <mxGeometry y="26" width="160" height="26" as="geometry" />
        </mxCell>
        <mxCell id="frSgxrHvrcFcjkGgJCsm-7" value="" style="line;strokeWidth=1;fillColor=none;align=left;verticalAlign=middle;spacingTop=-1;spacingLeft=3;spacingRight=3;rotatable=0;labelPosition=right;points=[];portConstraint=eastwest;strokeColor=inherit;" parent="frSgxrHvrcFcjkGgJCsm-5" vertex="1">
          <mxGeometry y="52" width="160" height="8" as="geometry" />
        </mxCell>
        <mxCell id="frSgxrHvrcFcjkGgJCsm-8" value="+draw_view(EView)" style="text;strokeColor=none;fillColor=none;align=left;verticalAlign=top;spacingLeft=4;spacingRight=4;overflow=hidden;rotatable=0;points=[[0,0.5],[1,0.5]];portConstraint=eastwest;whiteSpace=wrap;html=1;" parent="frSgxrHvrcFcjkGgJCsm-5" vertex="1">
          <mxGeometry y="60" width="160" height="26" as="geometry" />
        </mxCell>
        <mxCell id="frSgxrHvrcFcjkGgJCsm-9" value="ConnectionController" style="swimlane;fontStyle=1;align=center;verticalAlign=top;childLayout=stackLayout;horizontal=1;startSize=26;horizontalStack=0;resizeParent=1;resizeParentMax=0;resizeLast=0;collapsible=1;marginBottom=0;whiteSpace=wrap;html=1;" parent="WIyWlLk6GJQsqaUBKTNV-1" vertex="1">
          <mxGeometry x="454" y="-370" width="180" height="182" as="geometry" />
        </mxCell>
        <mxCell id="frSgxrHvrcFcjkGgJCsm-10" value="-connection_state: EConnState" style="text;strokeColor=none;fillColor=none;align=left;verticalAlign=top;spacingLeft=4;spacingRight=4;overflow=hidden;rotatable=0;points=[[0,0.5],[1,0.5]];portConstraint=eastwest;whiteSpace=wrap;html=1;" parent="frSgxrHvrcFcjkGgJCsm-9" vertex="1">
          <mxGeometry y="26" width="180" height="44" as="geometry" />
        </mxCell>
        <mxCell id="frSgxrHvrcFcjkGgJCsm-11" value="" style="line;strokeWidth=1;fillColor=none;align=left;verticalAlign=middle;spacingTop=-1;spacingLeft=3;spacingRight=3;rotatable=0;labelPosition=right;points=[];portConstraint=eastwest;strokeColor=inherit;" parent="frSgxrHvrcFcjkGgJCsm-9" vertex="1">
          <mxGeometry y="70" width="180" height="8" as="geometry" />
        </mxCell>
        <mxCell id="frSgxrHvrcFcjkGgJCsm-12" value="+connect()" style="text;strokeColor=none;fillColor=none;align=left;verticalAlign=top;spacingLeft=4;spacingRight=4;overflow=hidden;rotatable=0;points=[[0,0.5],[1,0.5]];portConstraint=eastwest;whiteSpace=wrap;html=1;" parent="frSgxrHvrcFcjkGgJCsm-9" vertex="1">
          <mxGeometry y="78" width="180" height="26" as="geometry" />
        </mxCell>
        <mxCell id="frSgxrHvrcFcjkGgJCsm-20" value="+disconnect()" style="text;strokeColor=none;fillColor=none;align=left;verticalAlign=top;spacingLeft=4;spacingRight=4;overflow=hidden;rotatable=0;points=[[0,0.5],[1,0.5]];portConstraint=eastwest;whiteSpace=wrap;html=1;" parent="frSgxrHvrcFcjkGgJCsm-9" vertex="1">
          <mxGeometry y="104" width="180" height="26" as="geometry" />
        </mxCell>
        <mxCell id="frSgxrHvrcFcjkGgJCsm-19" value="+receive_data()" style="text;strokeColor=none;fillColor=none;align=left;verticalAlign=top;spacingLeft=4;spacingRight=4;overflow=hidden;rotatable=0;points=[[0,0.5],[1,0.5]];portConstraint=eastwest;whiteSpace=wrap;html=1;" parent="frSgxrHvrcFcjkGgJCsm-9" vertex="1">
          <mxGeometry y="130" width="180" height="26" as="geometry" />
        </mxCell>
        <mxCell id="frSgxrHvrcFcjkGgJCsm-18" value="+send_data(data)" style="text;strokeColor=none;fillColor=none;align=left;verticalAlign=top;spacingLeft=4;spacingRight=4;overflow=hidden;rotatable=0;points=[[0,0.5],[1,0.5]];portConstraint=eastwest;whiteSpace=wrap;html=1;" parent="frSgxrHvrcFcjkGgJCsm-9" vertex="1">
          <mxGeometry y="156" width="180" height="26" as="geometry" />
        </mxCell>
        <mxCell id="frSgxrHvrcFcjkGgJCsm-13" value="EConnState" style="swimlane;fontStyle=0;childLayout=stackLayout;horizontal=1;startSize=26;fillColor=none;horizontalStack=0;resizeParent=1;resizeParentMax=0;resizeLast=0;collapsible=1;marginBottom=0;whiteSpace=wrap;html=1;" parent="WIyWlLk6GJQsqaUBKTNV-1" vertex="1">
          <mxGeometry x="450" y="-170" width="140" height="104" as="geometry" />
        </mxCell>
        <mxCell id="frSgxrHvrcFcjkGgJCsm-14" value="+connected" style="text;strokeColor=none;fillColor=none;align=left;verticalAlign=top;spacingLeft=4;spacingRight=4;overflow=hidden;rotatable=0;points=[[0,0.5],[1,0.5]];portConstraint=eastwest;whiteSpace=wrap;html=1;" parent="frSgxrHvrcFcjkGgJCsm-13" vertex="1">
          <mxGeometry y="26" width="140" height="26" as="geometry" />
        </mxCell>
        <mxCell id="frSgxrHvrcFcjkGgJCsm-15" value="+connecting" style="text;strokeColor=none;fillColor=none;align=left;verticalAlign=top;spacingLeft=4;spacingRight=4;overflow=hidden;rotatable=0;points=[[0,0.5],[1,0.5]];portConstraint=eastwest;whiteSpace=wrap;html=1;" parent="frSgxrHvrcFcjkGgJCsm-13" vertex="1">
          <mxGeometry y="52" width="140" height="26" as="geometry" />
        </mxCell>
        <mxCell id="frSgxrHvrcFcjkGgJCsm-16" value="+disconnected" style="text;strokeColor=none;fillColor=none;align=left;verticalAlign=top;spacingLeft=4;spacingRight=4;overflow=hidden;rotatable=0;points=[[0,0.5],[1,0.5]];portConstraint=eastwest;whiteSpace=wrap;html=1;" parent="frSgxrHvrcFcjkGgJCsm-13" vertex="1">
          <mxGeometry y="78" width="140" height="26" as="geometry" />
        </mxCell>
        <mxCell id="frSgxrHvrcFcjkGgJCsm-22" value="LobbyManager" style="swimlane;fontStyle=1;align=center;verticalAlign=top;childLayout=stackLayout;horizontal=1;startSize=26;horizontalStack=0;resizeParent=1;resizeParentMax=0;resizeLast=0;collapsible=1;marginBottom=0;whiteSpace=wrap;html=1;" parent="WIyWlLk6GJQsqaUBKTNV-1" vertex="1">
          <mxGeometry x="50" y="-360" width="180" height="180" as="geometry" />
        </mxCell>
        <mxCell id="frSgxrHvrcFcjkGgJCsm-23" value="-lobby_status: ELobbyState" style="text;strokeColor=none;fillColor=none;align=left;verticalAlign=top;spacingLeft=4;spacingRight=4;overflow=hidden;rotatable=0;points=[[0,0.5],[1,0.5]];portConstraint=eastwest;whiteSpace=wrap;html=1;" parent="frSgxrHvrcFcjkGgJCsm-22" vertex="1">
          <mxGeometry y="26" width="180" height="34" as="geometry" />
        </mxCell>
        <mxCell id="frSgxrHvrcFcjkGgJCsm-26" value="-num_of_players: int" style="text;strokeColor=none;fillColor=none;align=left;verticalAlign=top;spacingLeft=4;spacingRight=4;overflow=hidden;rotatable=0;points=[[0,0.5],[1,0.5]];portConstraint=eastwest;whiteSpace=wrap;html=1;" parent="frSgxrHvrcFcjkGgJCsm-22" vertex="1">
          <mxGeometry y="60" width="180" height="34" as="geometry" />
        </mxCell>
        <mxCell id="frSgxrHvrcFcjkGgJCsm-24" value="" style="line;strokeWidth=1;fillColor=none;align=left;verticalAlign=middle;spacingTop=-1;spacingLeft=3;spacingRight=3;rotatable=0;labelPosition=right;points=[];portConstraint=eastwest;strokeColor=inherit;" parent="frSgxrHvrcFcjkGgJCsm-22" vertex="1">
          <mxGeometry y="94" width="180" height="8" as="geometry" />
        </mxCell>
        <mxCell id="frSgxrHvrcFcjkGgJCsm-25" value="+quit_lobby()" style="text;strokeColor=none;fillColor=none;align=left;verticalAlign=top;spacingLeft=4;spacingRight=4;overflow=hidden;rotatable=0;points=[[0,0.5],[1,0.5]];portConstraint=eastwest;whiteSpace=wrap;html=1;" parent="frSgxrHvrcFcjkGgJCsm-22" vertex="1">
          <mxGeometry y="102" width="180" height="26" as="geometry" />
        </mxCell>
        <mxCell id="frSgxrHvrcFcjkGgJCsm-28" value="+join_lobby()" style="text;strokeColor=none;fillColor=none;align=left;verticalAlign=top;spacingLeft=4;spacingRight=4;overflow=hidden;rotatable=0;points=[[0,0.5],[1,0.5]];portConstraint=eastwest;whiteSpace=wrap;html=1;" parent="frSgxrHvrcFcjkGgJCsm-22" vertex="1">
          <mxGeometry y="128" width="180" height="26" as="geometry" />
        </mxCell>
        <mxCell id="frSgxrHvrcFcjkGgJCsm-29" value="+get_lobby_state()" style="text;strokeColor=none;fillColor=none;align=left;verticalAlign=top;spacingLeft=4;spacingRight=4;overflow=hidden;rotatable=0;points=[[0,0.5],[1,0.5]];portConstraint=eastwest;whiteSpace=wrap;html=1;" parent="frSgxrHvrcFcjkGgJCsm-22" vertex="1">
          <mxGeometry y="154" width="180" height="26" as="geometry" />
        </mxCell>
        <mxCell id="frSgxrHvrcFcjkGgJCsm-39" value="InputController" style="swimlane;fontStyle=1;align=center;verticalAlign=top;childLayout=stackLayout;horizontal=1;startSize=26;horizontalStack=0;resizeParent=1;resizeParentMax=0;resizeLast=0;collapsible=1;marginBottom=0;whiteSpace=wrap;html=1;" parent="WIyWlLk6GJQsqaUBKTNV-1" vertex="1">
          <mxGeometry x="650" y="-370" width="160" height="112" as="geometry" />
        </mxCell>
        <mxCell id="frSgxrHvrcFcjkGgJCsm-40" value="-events_handled:bool" style="text;strokeColor=none;fillColor=none;align=left;verticalAlign=top;spacingLeft=4;spacingRight=4;overflow=hidden;rotatable=0;points=[[0,0.5],[1,0.5]];portConstraint=eastwest;whiteSpace=wrap;html=1;" parent="frSgxrHvrcFcjkGgJCsm-39" vertex="1">
          <mxGeometry y="26" width="160" height="26" as="geometry" />
        </mxCell>
        <mxCell id="frSgxrHvrcFcjkGgJCsm-41" value="" style="line;strokeWidth=1;fillColor=none;align=left;verticalAlign=middle;spacingTop=-1;spacingLeft=3;spacingRight=3;rotatable=0;labelPosition=right;points=[];portConstraint=eastwest;strokeColor=inherit;" parent="frSgxrHvrcFcjkGgJCsm-39" vertex="1">
          <mxGeometry y="52" width="160" height="8" as="geometry" />
        </mxCell>
        <mxCell id="frSgxrHvrcFcjkGgJCsm-42" value="+collect_events()" style="text;strokeColor=none;fillColor=none;align=left;verticalAlign=top;spacingLeft=4;spacingRight=4;overflow=hidden;rotatable=0;points=[[0,0.5],[1,0.5]];portConstraint=eastwest;whiteSpace=wrap;html=1;" parent="frSgxrHvrcFcjkGgJCsm-39" vertex="1">
          <mxGeometry y="60" width="160" height="26" as="geometry" />
        </mxCell>
        <mxCell id="frSgxrHvrcFcjkGgJCsm-43" value="+send_events()" style="text;strokeColor=none;fillColor=none;align=left;verticalAlign=top;spacingLeft=4;spacingRight=4;overflow=hidden;rotatable=0;points=[[0,0.5],[1,0.5]];portConstraint=eastwest;whiteSpace=wrap;html=1;" parent="frSgxrHvrcFcjkGgJCsm-39" vertex="1">
          <mxGeometry y="86" width="160" height="26" as="geometry" />
        </mxCell>
        <mxCell id="frSgxrHvrcFcjkGgJCsm-57" value="" style="endArrow=diamondThin;endFill=1;endSize=24;html=1;rounded=0;exitX=0.5;exitY=0;exitDx=0;exitDy=0;entryX=0.194;entryY=1.031;entryDx=0;entryDy=0;entryPerimeter=0;" parent="WIyWlLk6GJQsqaUBKTNV-1" source="frSgxrHvrcFcjkGgJCsm-5" target="W4Zjn9NjiA4wPW8pre9K-45" edge="1">
          <mxGeometry width="160" relative="1" as="geometry">
            <mxPoint x="90" y="-450" as="sourcePoint" />
            <mxPoint x="250" y="-450" as="targetPoint" />
          </mxGeometry>
        </mxCell>
        <mxCell id="frSgxrHvrcFcjkGgJCsm-58" value="" style="endArrow=diamondThin;endFill=1;endSize=24;html=1;rounded=0;exitX=0.5;exitY=0;exitDx=0;exitDy=0;entryX=0;entryY=0.5;entryDx=0;entryDy=0;" parent="WIyWlLk6GJQsqaUBKTNV-1" source="frSgxrHvrcFcjkGgJCsm-22" target="W4Zjn9NjiA4wPW8pre9K-45" edge="1">
          <mxGeometry width="160" relative="1" as="geometry">
            <mxPoint x="78.96000000000001" y="-377.02" as="sourcePoint" />
            <mxPoint x="309.99999999999994" y="-449.0039999999999" as="targetPoint" />
          </mxGeometry>
        </mxCell>
        <mxCell id="frSgxrHvrcFcjkGgJCsm-59" value="" style="endArrow=diamondThin;endFill=1;endSize=24;html=1;rounded=0;entryX=0.463;entryY=1.031;entryDx=0;entryDy=0;entryPerimeter=0;exitX=0.5;exitY=0;exitDx=0;exitDy=0;" parent="WIyWlLk6GJQsqaUBKTNV-1" source="frSgxrHvrcFcjkGgJCsm-9" target="W4Zjn9NjiA4wPW8pre9K-45" edge="1">
          <mxGeometry width="160" relative="1" as="geometry">
            <mxPoint x="680" y="-410" as="sourcePoint" />
            <mxPoint x="630" y="-480" as="targetPoint" />
            <Array as="points" />
          </mxGeometry>
        </mxCell>
        <mxCell id="frSgxrHvrcFcjkGgJCsm-60" value="" style="endArrow=diamondThin;endFill=1;endSize=24;html=1;rounded=0;entryX=1;entryY=0.5;entryDx=0;entryDy=0;exitX=0.5;exitY=0;exitDx=0;exitDy=0;" parent="WIyWlLk6GJQsqaUBKTNV-1" source="frSgxrHvrcFcjkGgJCsm-39" target="W4Zjn9NjiA4wPW8pre9K-45" edge="1">
          <mxGeometry width="160" relative="1" as="geometry">
            <mxPoint x="689" y="-383" as="sourcePoint" />
            <mxPoint x="567" y="-446" as="targetPoint" />
          </mxGeometry>
        </mxCell>
        <mxCell id="frSgxrHvrcFcjkGgJCsm-111" value="Server" style="swimlane;fontStyle=1;align=center;verticalAlign=top;childLayout=stackLayout;horizontal=1;startSize=26;horizontalStack=0;resizeParent=1;resizeParentMax=0;resizeLast=0;collapsible=1;marginBottom=0;whiteSpace=wrap;html=1;" parent="WIyWlLk6GJQsqaUBKTNV-1" vertex="1">
          <mxGeometry x="340" y="-1100" width="160" height="138" as="geometry" />
        </mxCell>
        <mxCell id="frSgxrHvrcFcjkGgJCsm-112" value="-status" style="text;strokeColor=none;fillColor=none;align=left;verticalAlign=top;spacingLeft=4;spacingRight=4;overflow=hidden;rotatable=0;points=[[0,0.5],[1,0.5]];portConstraint=eastwest;whiteSpace=wrap;html=1;" parent="frSgxrHvrcFcjkGgJCsm-111" vertex="1">
          <mxGeometry y="26" width="160" height="26" as="geometry" />
        </mxCell>
        <mxCell id="frSgxrHvrcFcjkGgJCsm-113" value="" style="line;strokeWidth=1;fillColor=none;align=left;verticalAlign=middle;spacingTop=-1;spacingLeft=3;spacingRight=3;rotatable=0;labelPosition=right;points=[];portConstraint=eastwest;strokeColor=inherit;" parent="frSgxrHvrcFcjkGgJCsm-111" vertex="1">
          <mxGeometry y="52" width="160" height="8" as="geometry" />
        </mxCell>
        <mxCell id="frSgxrHvrcFcjkGgJCsm-114" value="+start_lobby()" style="text;strokeColor=none;fillColor=none;align=left;verticalAlign=top;spacingLeft=4;spacingRight=4;overflow=hidden;rotatable=0;points=[[0,0.5],[1,0.5]];portConstraint=eastwest;whiteSpace=wrap;html=1;" parent="frSgxrHvrcFcjkGgJCsm-111" vertex="1">
          <mxGeometry y="60" width="160" height="26" as="geometry" />
        </mxCell>
        <mxCell id="frSgxrHvrcFcjkGgJCsm-115" value="+kill_lobby()" style="text;strokeColor=none;fillColor=none;align=left;verticalAlign=top;spacingLeft=4;spacingRight=4;overflow=hidden;rotatable=0;points=[[0,0.5],[1,0.5]];portConstraint=eastwest;whiteSpace=wrap;html=1;" parent="frSgxrHvrcFcjkGgJCsm-111" vertex="1">
          <mxGeometry y="86" width="160" height="26" as="geometry" />
        </mxCell>
        <mxCell id="frSgxrHvrcFcjkGgJCsm-116" value="+shutdown()" style="text;strokeColor=none;fillColor=none;align=left;verticalAlign=top;spacingLeft=4;spacingRight=4;overflow=hidden;rotatable=0;points=[[0,0.5],[1,0.5]];portConstraint=eastwest;whiteSpace=wrap;html=1;" parent="frSgxrHvrcFcjkGgJCsm-111" vertex="1">
          <mxGeometry y="112" width="160" height="26" as="geometry" />
        </mxCell>
        <mxCell id="frSgxrHvrcFcjkGgJCsm-118" value="ConnectionController" style="swimlane;fontStyle=1;align=center;verticalAlign=top;childLayout=stackLayout;horizontal=1;startSize=26;horizontalStack=0;resizeParent=1;resizeParentMax=0;resizeLast=0;collapsible=1;marginBottom=0;whiteSpace=wrap;html=1;" parent="WIyWlLk6GJQsqaUBKTNV-1" vertex="1">
          <mxGeometry x="310" y="-894" width="180" height="172" as="geometry" />
        </mxCell>
        <mxCell id="frSgxrHvrcFcjkGgJCsm-119" value="-connections: Connection" style="text;strokeColor=none;fillColor=none;align=left;verticalAlign=top;spacingLeft=4;spacingRight=4;overflow=hidden;rotatable=0;points=[[0,0.5],[1,0.5]];portConstraint=eastwest;whiteSpace=wrap;html=1;" parent="frSgxrHvrcFcjkGgJCsm-118" vertex="1">
          <mxGeometry y="26" width="180" height="34" as="geometry" />
        </mxCell>
        <mxCell id="frSgxrHvrcFcjkGgJCsm-120" value="" style="line;strokeWidth=1;fillColor=none;align=left;verticalAlign=middle;spacingTop=-1;spacingLeft=3;spacingRight=3;rotatable=0;labelPosition=right;points=[];portConstraint=eastwest;strokeColor=inherit;" parent="frSgxrHvrcFcjkGgJCsm-118" vertex="1">
          <mxGeometry y="60" width="180" height="8" as="geometry" />
        </mxCell>
        <mxCell id="frSgxrHvrcFcjkGgJCsm-121" value="+connect()" style="text;strokeColor=none;fillColor=none;align=left;verticalAlign=top;spacingLeft=4;spacingRight=4;overflow=hidden;rotatable=0;points=[[0,0.5],[1,0.5]];portConstraint=eastwest;whiteSpace=wrap;html=1;" parent="frSgxrHvrcFcjkGgJCsm-118" vertex="1">
          <mxGeometry y="68" width="180" height="26" as="geometry" />
        </mxCell>
        <mxCell id="frSgxrHvrcFcjkGgJCsm-122" value="+disconnect()" style="text;strokeColor=none;fillColor=none;align=left;verticalAlign=top;spacingLeft=4;spacingRight=4;overflow=hidden;rotatable=0;points=[[0,0.5],[1,0.5]];portConstraint=eastwest;whiteSpace=wrap;html=1;" parent="frSgxrHvrcFcjkGgJCsm-118" vertex="1">
          <mxGeometry y="94" width="180" height="26" as="geometry" />
        </mxCell>
        <mxCell id="frSgxrHvrcFcjkGgJCsm-123" value="+receive_data()" style="text;strokeColor=none;fillColor=none;align=left;verticalAlign=top;spacingLeft=4;spacingRight=4;overflow=hidden;rotatable=0;points=[[0,0.5],[1,0.5]];portConstraint=eastwest;whiteSpace=wrap;html=1;" parent="frSgxrHvrcFcjkGgJCsm-118" vertex="1">
          <mxGeometry y="120" width="180" height="26" as="geometry" />
        </mxCell>
        <mxCell id="frSgxrHvrcFcjkGgJCsm-124" value="+send_data(data)" style="text;strokeColor=none;fillColor=none;align=left;verticalAlign=top;spacingLeft=4;spacingRight=4;overflow=hidden;rotatable=0;points=[[0,0.5],[1,0.5]];portConstraint=eastwest;whiteSpace=wrap;html=1;" parent="frSgxrHvrcFcjkGgJCsm-118" vertex="1">
          <mxGeometry y="146" width="180" height="26" as="geometry" />
        </mxCell>
        <mxCell id="frSgxrHvrcFcjkGgJCsm-125" value="" style="endArrow=diamondThin;endFill=1;endSize=24;html=1;rounded=0;entryX=0.419;entryY=1.077;entryDx=0;entryDy=0;entryPerimeter=0;exitX=0.5;exitY=0;exitDx=0;exitDy=0;" parent="WIyWlLk6GJQsqaUBKTNV-1" source="frSgxrHvrcFcjkGgJCsm-118" target="frSgxrHvrcFcjkGgJCsm-116" edge="1">
          <mxGeometry width="160" relative="1" as="geometry">
            <mxPoint x="562" y="-919" as="sourcePoint" />
            <mxPoint x="440" y="-982" as="targetPoint" />
            <Array as="points" />
          </mxGeometry>
        </mxCell>
        <mxCell id="frSgxrHvrcFcjkGgJCsm-127" value="Connection" style="swimlane;fontStyle=1;align=center;verticalAlign=top;childLayout=stackLayout;horizontal=1;startSize=26;horizontalStack=0;resizeParent=1;resizeParentMax=0;resizeLast=0;collapsible=1;marginBottom=0;whiteSpace=wrap;html=1;" parent="WIyWlLk6GJQsqaUBKTNV-1" vertex="1">
          <mxGeometry x="90" y="-900" width="160" height="164" as="geometry" />
        </mxCell>
        <mxCell id="frSgxrHvrcFcjkGgJCsm-128" value="-state" style="text;strokeColor=none;fillColor=none;align=left;verticalAlign=top;spacingLeft=4;spacingRight=4;overflow=hidden;rotatable=0;points=[[0,0.5],[1,0.5]];portConstraint=eastwest;whiteSpace=wrap;html=1;" parent="frSgxrHvrcFcjkGgJCsm-127" vertex="1">
          <mxGeometry y="26" width="160" height="26" as="geometry" />
        </mxCell>
        <mxCell id="frSgxrHvrcFcjkGgJCsm-132" value="-address" style="text;strokeColor=none;fillColor=none;align=left;verticalAlign=top;spacingLeft=4;spacingRight=4;overflow=hidden;rotatable=0;points=[[0,0.5],[1,0.5]];portConstraint=eastwest;whiteSpace=wrap;html=1;" parent="frSgxrHvrcFcjkGgJCsm-127" vertex="1">
          <mxGeometry y="52" width="160" height="26" as="geometry" />
        </mxCell>
        <mxCell id="frSgxrHvrcFcjkGgJCsm-134" value="-socket_handle" style="text;strokeColor=none;fillColor=none;align=left;verticalAlign=top;spacingLeft=4;spacingRight=4;overflow=hidden;rotatable=0;points=[[0,0.5],[1,0.5]];portConstraint=eastwest;whiteSpace=wrap;html=1;" parent="frSgxrHvrcFcjkGgJCsm-127" vertex="1">
          <mxGeometry y="78" width="160" height="26" as="geometry" />
        </mxCell>
        <mxCell id="frSgxrHvrcFcjkGgJCsm-129" value="" style="line;strokeWidth=1;fillColor=none;align=left;verticalAlign=middle;spacingTop=-1;spacingLeft=3;spacingRight=3;rotatable=0;labelPosition=right;points=[];portConstraint=eastwest;strokeColor=inherit;" parent="frSgxrHvrcFcjkGgJCsm-127" vertex="1">
          <mxGeometry y="104" width="160" height="8" as="geometry" />
        </mxCell>
        <mxCell id="frSgxrHvrcFcjkGgJCsm-130" value="+disconnect_socket()" style="text;strokeColor=none;fillColor=none;align=left;verticalAlign=top;spacingLeft=4;spacingRight=4;overflow=hidden;rotatable=0;points=[[0,0.5],[1,0.5]];portConstraint=eastwest;whiteSpace=wrap;html=1;" parent="frSgxrHvrcFcjkGgJCsm-127" vertex="1">
          <mxGeometry y="112" width="160" height="26" as="geometry" />
        </mxCell>
        <mxCell id="frSgxrHvrcFcjkGgJCsm-133" value="+connect_socket()" style="text;strokeColor=none;fillColor=none;align=left;verticalAlign=top;spacingLeft=4;spacingRight=4;overflow=hidden;rotatable=0;points=[[0,0.5],[1,0.5]];portConstraint=eastwest;whiteSpace=wrap;html=1;" parent="frSgxrHvrcFcjkGgJCsm-127" vertex="1">
          <mxGeometry y="138" width="160" height="26" as="geometry" />
        </mxCell>
        <mxCell id="frSgxrHvrcFcjkGgJCsm-135" value="" style="endArrow=diamondThin;endFill=1;endSize=24;html=1;rounded=0;exitX=1;exitY=0.5;exitDx=0;exitDy=0;entryX=0;entryY=0.5;entryDx=0;entryDy=0;" parent="WIyWlLk6GJQsqaUBKTNV-1" source="frSgxrHvrcFcjkGgJCsm-134" target="frSgxrHvrcFcjkGgJCsm-119" edge="1">
          <mxGeometry width="160" relative="1" as="geometry">
            <mxPoint x="283" y="-660" as="sourcePoint" />
            <mxPoint x="334" y="-722" as="targetPoint" />
          </mxGeometry>
        </mxCell>
        <mxCell id="frSgxrHvrcFcjkGgJCsm-136" value="1..4" style="edgeLabel;html=1;align=center;verticalAlign=middle;resizable=0;points=[];" parent="frSgxrHvrcFcjkGgJCsm-135" vertex="1" connectable="0">
          <mxGeometry x="-0.0592" y="-1" relative="1" as="geometry">
            <mxPoint as="offset" />
          </mxGeometry>
        </mxCell>
        <mxCell id="frSgxrHvrcFcjkGgJCsm-141" value="GamesDB" style="swimlane;fontStyle=1;align=center;verticalAlign=top;childLayout=stackLayout;horizontal=1;startSize=26;horizontalStack=0;resizeParent=1;resizeParentMax=0;resizeLast=0;collapsible=1;marginBottom=0;whiteSpace=wrap;html=1;" parent="WIyWlLk6GJQsqaUBKTNV-1" vertex="1">
          <mxGeometry x="560" y="-894" width="160" height="112" as="geometry" />
        </mxCell>
        <mxCell id="frSgxrHvrcFcjkGgJCsm-142" value="-database" style="text;strokeColor=none;fillColor=none;align=left;verticalAlign=top;spacingLeft=4;spacingRight=4;overflow=hidden;rotatable=0;points=[[0,0.5],[1,0.5]];portConstraint=eastwest;whiteSpace=wrap;html=1;" parent="frSgxrHvrcFcjkGgJCsm-141" vertex="1">
          <mxGeometry y="26" width="160" height="26" as="geometry" />
        </mxCell>
        <mxCell id="frSgxrHvrcFcjkGgJCsm-143" value="" style="line;strokeWidth=1;fillColor=none;align=left;verticalAlign=middle;spacingTop=-1;spacingLeft=3;spacingRight=3;rotatable=0;labelPosition=right;points=[];portConstraint=eastwest;strokeColor=inherit;" parent="frSgxrHvrcFcjkGgJCsm-141" vertex="1">
          <mxGeometry y="52" width="160" height="8" as="geometry" />
        </mxCell>
        <mxCell id="frSgxrHvrcFcjkGgJCsm-144" value="+update_games(data)" style="text;strokeColor=none;fillColor=none;align=left;verticalAlign=top;spacingLeft=4;spacingRight=4;overflow=hidden;rotatable=0;points=[[0,0.5],[1,0.5]];portConstraint=eastwest;whiteSpace=wrap;html=1;" parent="frSgxrHvrcFcjkGgJCsm-141" vertex="1">
          <mxGeometry y="60" width="160" height="26" as="geometry" />
        </mxCell>
        <mxCell id="frSgxrHvrcFcjkGgJCsm-145" value="+broadcast_games_state()" style="text;strokeColor=none;fillColor=none;align=left;verticalAlign=top;spacingLeft=4;spacingRight=4;overflow=hidden;rotatable=0;points=[[0,0.5],[1,0.5]];portConstraint=eastwest;whiteSpace=wrap;html=1;" parent="frSgxrHvrcFcjkGgJCsm-141" vertex="1">
          <mxGeometry y="86" width="160" height="26" as="geometry" />
        </mxCell>
        <mxCell id="frSgxrHvrcFcjkGgJCsm-146" value="" style="endArrow=diamondThin;endFill=1;endSize=24;html=1;rounded=0;entryX=1;entryY=0.5;entryDx=0;entryDy=0;exitX=0.5;exitY=0;exitDx=0;exitDy=0;" parent="WIyWlLk6GJQsqaUBKTNV-1" source="frSgxrHvrcFcjkGgJCsm-141" target="frSgxrHvrcFcjkGgJCsm-114" edge="1">
          <mxGeometry width="160" relative="1" as="geometry">
            <mxPoint x="450" y="-880" as="sourcePoint" />
            <mxPoint x="447" y="-960" as="targetPoint" />
            <Array as="points" />
          </mxGeometry>
        </mxCell>
        <mxCell id="frSgxrHvrcFcjkGgJCsm-147" value="" style="endArrow=block;startArrow=block;endFill=1;startFill=1;html=1;rounded=0;exitX=1;exitY=0.5;exitDx=0;exitDy=0;entryX=0;entryY=0.5;entryDx=0;entryDy=0;" parent="WIyWlLk6GJQsqaUBKTNV-1" source="frSgxrHvrcFcjkGgJCsm-121" target="frSgxrHvrcFcjkGgJCsm-142" edge="1">
          <mxGeometry width="160" relative="1" as="geometry">
            <mxPoint x="414" y="-830" as="sourcePoint" />
            <mxPoint x="574" y="-830" as="targetPoint" />
          </mxGeometry>
        </mxCell>
        <mxCell id="BvnakJqivRJq1G5SyChi-0" value="GameLogic" style="swimlane;fontStyle=1;align=center;verticalAlign=top;childLayout=stackLayout;horizontal=1;startSize=26;horizontalStack=0;resizeParent=1;resizeParentMax=0;resizeLast=0;collapsible=1;marginBottom=0;whiteSpace=wrap;html=1;" parent="WIyWlLk6GJQsqaUBKTNV-1" vertex="1">
          <mxGeometry x="860" y="-360" width="160" height="142" as="geometry">
            <mxRectangle x="320" y="80" width="70" height="30" as="alternateBounds" />
          </mxGeometry>
        </mxCell>
        <mxCell id="BvnakJqivRJq1G5SyChi-1" value="-lives: int&lt;div&gt;-game_state: EGameState&lt;/div&gt;&lt;div&gt;-score: int&lt;/div&gt;" style="text;strokeColor=none;fillColor=none;align=left;verticalAlign=top;spacingLeft=4;spacingRight=4;overflow=hidden;rotatable=0;points=[[0,0.5],[1,0.5]];portConstraint=eastwest;whiteSpace=wrap;html=1;" parent="BvnakJqivRJq1G5SyChi-0" vertex="1">
          <mxGeometry y="26" width="160" height="64" as="geometry" />
        </mxCell>
        <mxCell id="BvnakJqivRJq1G5SyChi-2" value="" style="line;strokeWidth=1;fillColor=none;align=left;verticalAlign=middle;spacingTop=-1;spacingLeft=3;spacingRight=3;rotatable=0;labelPosition=right;points=[];portConstraint=eastwest;strokeColor=inherit;" parent="BvnakJqivRJq1G5SyChi-0" vertex="1">
          <mxGeometry y="90" width="160" height="8" as="geometry" />
        </mxCell>
        <mxCell id="frSgxrHvrcFcjkGgJCsm-31" value="+exit()" style="text;strokeColor=none;fillColor=none;align=left;verticalAlign=top;spacingLeft=4;spacingRight=4;overflow=hidden;rotatable=0;points=[[0,0.5],[1,0.5]];portConstraint=eastwest;whiteSpace=wrap;html=1;" parent="BvnakJqivRJq1G5SyChi-0" vertex="1">
          <mxGeometry y="98" width="160" height="22" as="geometry" />
        </mxCell>
        <mxCell id="frSgxrHvrcFcjkGgJCsm-33" value="+update_game_status()" style="text;strokeColor=none;fillColor=none;align=left;verticalAlign=top;spacingLeft=4;spacingRight=4;overflow=hidden;rotatable=0;points=[[0,0.5],[1,0.5]];portConstraint=eastwest;whiteSpace=wrap;html=1;" parent="BvnakJqivRJq1G5SyChi-0" vertex="1">
          <mxGeometry y="120" width="160" height="22" as="geometry" />
        </mxCell>
        <mxCell id="W4Zjn9NjiA4wPW8pre9K-0" value="Pac-Man" style="swimlane;fontStyle=1;align=center;verticalAlign=top;childLayout=stackLayout;horizontal=1;startSize=26;horizontalStack=0;resizeParent=1;resizeParentMax=0;resizeLast=0;collapsible=1;marginBottom=0;whiteSpace=wrap;html=1;" parent="WIyWlLk6GJQsqaUBKTNV-1" vertex="1">
          <mxGeometry x="620" y="-104" width="160" height="110" as="geometry" />
        </mxCell>
        <mxCell id="W4Zjn9NjiA4wPW8pre9K-1" value="-position: Position" style="text;strokeColor=none;fillColor=none;align=left;verticalAlign=top;spacingLeft=4;spacingRight=4;overflow=hidden;rotatable=0;points=[[0,0.5],[1,0.5]];portConstraint=eastwest;whiteSpace=wrap;html=1;" parent="W4Zjn9NjiA4wPW8pre9K-0" vertex="1">
          <mxGeometry y="26" width="160" height="26" as="geometry" />
        </mxCell>
        <mxCell id="W4Zjn9NjiA4wPW8pre9K-2" value="" style="line;strokeWidth=1;fillColor=none;align=left;verticalAlign=middle;spacingTop=-1;spacingLeft=3;spacingRight=3;rotatable=0;labelPosition=right;points=[];portConstraint=eastwest;strokeColor=inherit;" parent="W4Zjn9NjiA4wPW8pre9K-0" vertex="1">
          <mxGeometry y="52" width="160" height="8" as="geometry" />
        </mxCell>
        <mxCell id="W4Zjn9NjiA4wPW8pre9K-3" value="+move()&lt;br&gt;+die()" style="text;strokeColor=none;fillColor=none;align=left;verticalAlign=top;spacingLeft=4;spacingRight=4;overflow=hidden;rotatable=0;points=[[0,0.5],[1,0.5]];portConstraint=eastwest;whiteSpace=wrap;html=1;" parent="W4Zjn9NjiA4wPW8pre9K-0" vertex="1">
          <mxGeometry y="60" width="160" height="50" as="geometry" />
        </mxCell>
        <mxCell id="W4Zjn9NjiA4wPW8pre9K-5" value="Ghost" style="swimlane;fontStyle=1;align=center;verticalAlign=top;childLayout=stackLayout;horizontal=1;startSize=26;horizontalStack=0;resizeParent=1;resizeParentMax=0;resizeLast=0;collapsible=1;marginBottom=0;whiteSpace=wrap;html=1;" parent="WIyWlLk6GJQsqaUBKTNV-1" vertex="1">
          <mxGeometry x="800" y="-104" width="160" height="86" as="geometry" />
        </mxCell>
        <mxCell id="W4Zjn9NjiA4wPW8pre9K-6" value="-position: Position" style="text;strokeColor=none;fillColor=none;align=left;verticalAlign=top;spacingLeft=4;spacingRight=4;overflow=hidden;rotatable=0;points=[[0,0.5],[1,0.5]];portConstraint=eastwest;whiteSpace=wrap;html=1;" parent="W4Zjn9NjiA4wPW8pre9K-5" vertex="1">
          <mxGeometry y="26" width="160" height="26" as="geometry" />
        </mxCell>
        <mxCell id="W4Zjn9NjiA4wPW8pre9K-7" value="" style="line;strokeWidth=1;fillColor=none;align=left;verticalAlign=middle;spacingTop=-1;spacingLeft=3;spacingRight=3;rotatable=0;labelPosition=right;points=[];portConstraint=eastwest;strokeColor=inherit;" parent="W4Zjn9NjiA4wPW8pre9K-5" vertex="1">
          <mxGeometry y="52" width="160" height="8" as="geometry" />
        </mxCell>
        <mxCell id="W4Zjn9NjiA4wPW8pre9K-8" value="+move()" style="text;strokeColor=none;fillColor=none;align=left;verticalAlign=top;spacingLeft=4;spacingRight=4;overflow=hidden;rotatable=0;points=[[0,0.5],[1,0.5]];portConstraint=eastwest;whiteSpace=wrap;html=1;" parent="W4Zjn9NjiA4wPW8pre9K-5" vertex="1">
          <mxGeometry y="60" width="160" height="26" as="geometry" />
        </mxCell>
        <mxCell id="W4Zjn9NjiA4wPW8pre9K-13" value="Dot&lt;div&gt;&lt;br&gt;&lt;/div&gt;" style="swimlane;fontStyle=1;align=center;verticalAlign=top;childLayout=stackLayout;horizontal=1;startSize=26;horizontalStack=0;resizeParent=1;resizeParentMax=0;resizeLast=0;collapsible=1;marginBottom=0;whiteSpace=wrap;html=1;" parent="WIyWlLk6GJQsqaUBKTNV-1" vertex="1">
          <mxGeometry x="980" y="-104" width="160" height="100" as="geometry" />
        </mxCell>
        <mxCell id="W4Zjn9NjiA4wPW8pre9K-14" value="-position: Position" style="text;strokeColor=none;fillColor=none;align=left;verticalAlign=top;spacingLeft=4;spacingRight=4;overflow=hidden;rotatable=0;points=[[0,0.5],[1,0.5]];portConstraint=eastwest;whiteSpace=wrap;html=1;" parent="W4Zjn9NjiA4wPW8pre9K-13" vertex="1">
          <mxGeometry y="26" width="160" height="26" as="geometry" />
        </mxCell>
        <mxCell id="W4Zjn9NjiA4wPW8pre9K-15" value="" style="line;strokeWidth=1;fillColor=none;align=left;verticalAlign=middle;spacingTop=-1;spacingLeft=3;spacingRight=3;rotatable=0;labelPosition=right;points=[];portConstraint=eastwest;strokeColor=inherit;" parent="W4Zjn9NjiA4wPW8pre9K-13" vertex="1">
          <mxGeometry y="52" width="160" height="8" as="geometry" />
        </mxCell>
        <mxCell id="W4Zjn9NjiA4wPW8pre9K-16" value="+disappear()&lt;div&gt;+appear()&lt;/div&gt;" style="text;strokeColor=none;fillColor=none;align=left;verticalAlign=top;spacingLeft=4;spacingRight=4;overflow=hidden;rotatable=0;points=[[0,0.5],[1,0.5]];portConstraint=eastwest;whiteSpace=wrap;html=1;" parent="W4Zjn9NjiA4wPW8pre9K-13" vertex="1">
          <mxGeometry y="60" width="160" height="40" as="geometry" />
        </mxCell>
        <mxCell id="W4Zjn9NjiA4wPW8pre9K-17" value="&lt;div&gt;Power Dot&lt;/div&gt;" style="swimlane;fontStyle=1;align=center;verticalAlign=top;childLayout=stackLayout;horizontal=1;startSize=26;horizontalStack=0;resizeParent=1;resizeParentMax=0;resizeLast=0;collapsible=1;marginBottom=0;whiteSpace=wrap;html=1;" parent="WIyWlLk6GJQsqaUBKTNV-1" vertex="1">
          <mxGeometry x="1160" y="-104" width="160" height="100" as="geometry" />
        </mxCell>
        <mxCell id="W4Zjn9NjiA4wPW8pre9K-18" value="-position: Position" style="text;strokeColor=none;fillColor=none;align=left;verticalAlign=top;spacingLeft=4;spacingRight=4;overflow=hidden;rotatable=0;points=[[0,0.5],[1,0.5]];portConstraint=eastwest;whiteSpace=wrap;html=1;" parent="W4Zjn9NjiA4wPW8pre9K-17" vertex="1">
          <mxGeometry y="26" width="160" height="26" as="geometry" />
        </mxCell>
        <mxCell id="W4Zjn9NjiA4wPW8pre9K-19" value="" style="line;strokeWidth=1;fillColor=none;align=left;verticalAlign=middle;spacingTop=-1;spacingLeft=3;spacingRight=3;rotatable=0;labelPosition=right;points=[];portConstraint=eastwest;strokeColor=inherit;" parent="W4Zjn9NjiA4wPW8pre9K-17" vertex="1">
          <mxGeometry y="52" width="160" height="8" as="geometry" />
        </mxCell>
        <mxCell id="W4Zjn9NjiA4wPW8pre9K-20" value="+disappear()&lt;div&gt;+appear()&lt;/div&gt;" style="text;strokeColor=none;fillColor=none;align=left;verticalAlign=top;spacingLeft=4;spacingRight=4;overflow=hidden;rotatable=0;points=[[0,0.5],[1,0.5]];portConstraint=eastwest;whiteSpace=wrap;html=1;" parent="W4Zjn9NjiA4wPW8pre9K-17" vertex="1">
          <mxGeometry y="60" width="160" height="40" as="geometry" />
        </mxCell>
        <mxCell id="frSgxrHvrcFcjkGgJCsm-34" value="EGameState" style="swimlane;fontStyle=0;childLayout=stackLayout;horizontal=1;startSize=26;fillColor=none;horizontalStack=0;resizeParent=1;resizeParentMax=0;resizeLast=0;collapsible=1;marginBottom=0;whiteSpace=wrap;html=1;" parent="WIyWlLk6GJQsqaUBKTNV-1" vertex="1">
          <mxGeometry x="1034" y="-360" width="140" height="104" as="geometry" />
        </mxCell>
        <mxCell id="frSgxrHvrcFcjkGgJCsm-35" value="+playing" style="text;strokeColor=none;fillColor=none;align=left;verticalAlign=top;spacingLeft=4;spacingRight=4;overflow=hidden;rotatable=0;points=[[0,0.5],[1,0.5]];portConstraint=eastwest;whiteSpace=wrap;html=1;" parent="frSgxrHvrcFcjkGgJCsm-34" vertex="1">
          <mxGeometry y="26" width="140" height="26" as="geometry" />
        </mxCell>
        <mxCell id="frSgxrHvrcFcjkGgJCsm-36" value="+spectating" style="text;strokeColor=none;fillColor=none;align=left;verticalAlign=top;spacingLeft=4;spacingRight=4;overflow=hidden;rotatable=0;points=[[0,0.5],[1,0.5]];portConstraint=eastwest;whiteSpace=wrap;html=1;" parent="frSgxrHvrcFcjkGgJCsm-34" vertex="1">
          <mxGeometry y="52" width="140" height="26" as="geometry" />
        </mxCell>
        <mxCell id="frSgxrHvrcFcjkGgJCsm-37" value="+ended" style="text;strokeColor=none;fillColor=none;align=left;verticalAlign=top;spacingLeft=4;spacingRight=4;overflow=hidden;rotatable=0;points=[[0,0.5],[1,0.5]];portConstraint=eastwest;whiteSpace=wrap;html=1;" parent="frSgxrHvrcFcjkGgJCsm-34" vertex="1">
          <mxGeometry y="78" width="140" height="26" as="geometry" />
        </mxCell>
        <mxCell id="frSgxrHvrcFcjkGgJCsm-65" value="GameEntity" style="swimlane;fontStyle=1;align=center;verticalAlign=top;childLayout=stackLayout;horizontal=1;startSize=26;horizontalStack=0;resizeParent=1;resizeParentMax=0;resizeLast=0;collapsible=1;marginBottom=0;whiteSpace=wrap;html=1;movable=1;resizable=1;rotatable=1;deletable=1;editable=1;locked=0;connectable=1;" parent="WIyWlLk6GJQsqaUBKTNV-1" vertex="1">
          <mxGeometry x="860" y="30" width="160" height="190" as="geometry" />
        </mxCell>
        <mxCell id="frSgxrHvrcFcjkGgJCsm-66" value="+sprite" style="text;strokeColor=none;fillColor=none;align=left;verticalAlign=top;spacingLeft=4;spacingRight=4;overflow=hidden;rotatable=0;points=[[0,0.5],[1,0.5]];portConstraint=eastwest;whiteSpace=wrap;html=1;" parent="frSgxrHvrcFcjkGgJCsm-65" vertex="1">
          <mxGeometry y="26" width="160" height="26" as="geometry" />
        </mxCell>
        <mxCell id="frSgxrHvrcFcjkGgJCsm-70" value="+x" style="text;strokeColor=none;fillColor=none;align=left;verticalAlign=top;spacingLeft=4;spacingRight=4;overflow=hidden;rotatable=0;points=[[0,0.5],[1,0.5]];portConstraint=eastwest;whiteSpace=wrap;html=1;" parent="frSgxrHvrcFcjkGgJCsm-65" vertex="1">
          <mxGeometry y="52" width="160" height="26" as="geometry" />
        </mxCell>
        <mxCell id="frSgxrHvrcFcjkGgJCsm-71" value="+y" style="text;strokeColor=none;fillColor=none;align=left;verticalAlign=top;spacingLeft=4;spacingRight=4;overflow=hidden;rotatable=0;points=[[0,0.5],[1,0.5]];portConstraint=eastwest;whiteSpace=wrap;html=1;" parent="frSgxrHvrcFcjkGgJCsm-65" vertex="1">
          <mxGeometry y="78" width="160" height="26" as="geometry" />
        </mxCell>
        <mxCell id="frSgxrHvrcFcjkGgJCsm-67" value="" style="line;strokeWidth=1;fillColor=none;align=left;verticalAlign=middle;spacingTop=-1;spacingLeft=3;spacingRight=3;rotatable=0;labelPosition=right;points=[];portConstraint=eastwest;strokeColor=inherit;" parent="frSgxrHvrcFcjkGgJCsm-65" vertex="1">
          <mxGeometry y="104" width="160" height="8" as="geometry" />
        </mxCell>
        <mxCell id="frSgxrHvrcFcjkGgJCsm-68" value="+create_at_position()" style="text;strokeColor=none;fillColor=none;align=left;verticalAlign=top;spacingLeft=4;spacingRight=4;overflow=hidden;rotatable=0;points=[[0,0.5],[1,0.5]];portConstraint=eastwest;whiteSpace=wrap;html=1;" parent="frSgxrHvrcFcjkGgJCsm-65" vertex="1">
          <mxGeometry y="112" width="160" height="26" as="geometry" />
        </mxCell>
        <mxCell id="frSgxrHvrcFcjkGgJCsm-69" value="+update_position()" style="text;strokeColor=none;fillColor=none;align=left;verticalAlign=top;spacingLeft=4;spacingRight=4;overflow=hidden;rotatable=0;points=[[0,0.5],[1,0.5]];portConstraint=eastwest;whiteSpace=wrap;html=1;" parent="frSgxrHvrcFcjkGgJCsm-65" vertex="1">
          <mxGeometry y="138" width="160" height="26" as="geometry" />
        </mxCell>
        <mxCell id="frSgxrHvrcFcjkGgJCsm-72" value="+destroy()" style="text;strokeColor=none;fillColor=none;align=left;verticalAlign=top;spacingLeft=4;spacingRight=4;overflow=hidden;rotatable=0;points=[[0,0.5],[1,0.5]];portConstraint=eastwest;whiteSpace=wrap;html=1;" parent="frSgxrHvrcFcjkGgJCsm-65" vertex="1">
          <mxGeometry y="164" width="160" height="26" as="geometry" />
        </mxCell>
        <mxCell id="frSgxrHvrcFcjkGgJCsm-83" value="&lt;div&gt;&lt;br&gt;&lt;/div&gt;&lt;div&gt;&lt;br&gt;&lt;/div&gt;" style="endArrow=block;endSize=16;endFill=0;html=1;rounded=0;exitX=0.556;exitY=1;exitDx=0;exitDy=0;entryX=0;entryY=0;entryDx=0;entryDy=0;exitPerimeter=0;" parent="WIyWlLk6GJQsqaUBKTNV-1" source="W4Zjn9NjiA4wPW8pre9K-3" target="frSgxrHvrcFcjkGgJCsm-65" edge="1">
          <mxGeometry width="160" relative="1" as="geometry">
            <mxPoint x="830" y="-25" as="sourcePoint" />
            <mxPoint x="610" y="297" as="targetPoint" />
          </mxGeometry>
        </mxCell>
        <mxCell id="frSgxrHvrcFcjkGgJCsm-84" value="&lt;div&gt;&lt;br&gt;&lt;/div&gt;&lt;div&gt;&lt;br&gt;&lt;/div&gt;" style="endArrow=block;endSize=16;endFill=0;html=1;rounded=0;exitX=0.481;exitY=1.038;exitDx=0;exitDy=0;entryX=0.25;entryY=0;entryDx=0;entryDy=0;exitPerimeter=0;" parent="WIyWlLk6GJQsqaUBKTNV-1" source="W4Zjn9NjiA4wPW8pre9K-8" target="frSgxrHvrcFcjkGgJCsm-65" edge="1">
          <mxGeometry width="160" relative="1" as="geometry">
            <mxPoint x="1034" y="36" as="sourcePoint" />
            <mxPoint x="1195" y="136" as="targetPoint" />
          </mxGeometry>
        </mxCell>
        <mxCell id="frSgxrHvrcFcjkGgJCsm-85" value="&lt;div&gt;&lt;br&gt;&lt;/div&gt;&lt;div&gt;&lt;br&gt;&lt;/div&gt;" style="endArrow=block;endSize=16;endFill=0;html=1;rounded=0;exitX=0.506;exitY=1.025;exitDx=0;exitDy=0;entryX=0.713;entryY=-0.005;entryDx=0;entryDy=0;exitPerimeter=0;entryPerimeter=0;" parent="WIyWlLk6GJQsqaUBKTNV-1" source="W4Zjn9NjiA4wPW8pre9K-16" target="frSgxrHvrcFcjkGgJCsm-65" edge="1">
          <mxGeometry width="160" relative="1" as="geometry">
            <mxPoint x="729" y="26" as="sourcePoint" />
            <mxPoint x="890" y="126" as="targetPoint" />
          </mxGeometry>
        </mxCell>
        <mxCell id="frSgxrHvrcFcjkGgJCsm-86" value="&lt;div&gt;&lt;br&gt;&lt;/div&gt;&lt;div&gt;&lt;br&gt;&lt;/div&gt;" style="endArrow=block;endSize=16;endFill=0;html=1;rounded=0;exitX=0.513;exitY=1.025;exitDx=0;exitDy=0;entryX=1;entryY=0;entryDx=0;entryDy=0;exitPerimeter=0;" parent="WIyWlLk6GJQsqaUBKTNV-1" source="W4Zjn9NjiA4wPW8pre9K-20" target="frSgxrHvrcFcjkGgJCsm-65" edge="1">
          <mxGeometry width="160" relative="1" as="geometry">
            <mxPoint x="739" y="36" as="sourcePoint" />
            <mxPoint x="900" y="136" as="targetPoint" />
          </mxGeometry>
        </mxCell>
        <mxCell id="frSgxrHvrcFcjkGgJCsm-87" value="" style="endArrow=diamondThin;endFill=1;endSize=24;html=1;rounded=0;exitX=0.5;exitY=0;exitDx=0;exitDy=0;entryX=0;entryY=0.5;entryDx=0;entryDy=0;" parent="WIyWlLk6GJQsqaUBKTNV-1" source="W4Zjn9NjiA4wPW8pre9K-0" target="frSgxrHvrcFcjkGgJCsm-33" edge="1">
          <mxGeometry width="160" relative="1" as="geometry">
            <mxPoint x="1160" y="-124" as="sourcePoint" />
            <mxPoint x="1000" y="-124" as="targetPoint" />
          </mxGeometry>
        </mxCell>
        <mxCell id="frSgxrHvrcFcjkGgJCsm-88" value="" style="endArrow=diamondThin;endFill=1;endSize=24;html=1;rounded=0;exitX=0.5;exitY=0;exitDx=0;exitDy=0;entryX=0.269;entryY=1;entryDx=0;entryDy=0;entryPerimeter=0;" parent="WIyWlLk6GJQsqaUBKTNV-1" source="W4Zjn9NjiA4wPW8pre9K-5" target="frSgxrHvrcFcjkGgJCsm-33" edge="1">
          <mxGeometry width="160" relative="1" as="geometry">
            <mxPoint x="710" y="-94" as="sourcePoint" />
            <mxPoint x="966" y="-298" as="targetPoint" />
          </mxGeometry>
        </mxCell>
        <mxCell id="frSgxrHvrcFcjkGgJCsm-89" value="" style="endArrow=diamondThin;endFill=1;endSize=24;html=1;rounded=0;exitX=0.5;exitY=0;exitDx=0;exitDy=0;entryX=0.606;entryY=1.136;entryDx=0;entryDy=0;entryPerimeter=0;" parent="WIyWlLk6GJQsqaUBKTNV-1" source="W4Zjn9NjiA4wPW8pre9K-13" target="frSgxrHvrcFcjkGgJCsm-33" edge="1">
          <mxGeometry width="160" relative="1" as="geometry">
            <mxPoint x="720" y="-84" as="sourcePoint" />
            <mxPoint x="976" y="-288" as="targetPoint" />
          </mxGeometry>
        </mxCell>
        <mxCell id="frSgxrHvrcFcjkGgJCsm-90" value="" style="endArrow=diamondThin;endFill=1;endSize=24;html=1;rounded=0;exitX=0.5;exitY=0;exitDx=0;exitDy=0;entryX=0.85;entryY=1.136;entryDx=0;entryDy=0;entryPerimeter=0;" parent="WIyWlLk6GJQsqaUBKTNV-1" source="W4Zjn9NjiA4wPW8pre9K-17" target="frSgxrHvrcFcjkGgJCsm-33" edge="1">
          <mxGeometry width="160" relative="1" as="geometry">
            <mxPoint x="730" y="-74" as="sourcePoint" />
            <mxPoint x="986" y="-278" as="targetPoint" />
          </mxGeometry>
        </mxCell>
        <mxCell id="H_CMYaS09ooLMEQShiIc-2" value="" style="endArrow=diamondThin;endFill=1;endSize=24;html=1;rounded=0;entryX=1;entryY=0.25;entryDx=0;entryDy=0;exitX=0.5;exitY=0;exitDx=0;exitDy=0;" edge="1" parent="WIyWlLk6GJQsqaUBKTNV-1" source="BvnakJqivRJq1G5SyChi-0" target="W4Zjn9NjiA4wPW8pre9K-42">
          <mxGeometry width="160" relative="1" as="geometry">
            <mxPoint x="926" y="-380" as="sourcePoint" />
            <mxPoint x="700" y="-460" as="targetPoint" />
          </mxGeometry>
        </mxCell>
        <mxCell id="H_CMYaS09ooLMEQShiIc-4" value="" style="endArrow=classic;html=1;rounded=0;entryX=0.006;entryY=0.609;entryDx=0;entryDy=0;entryPerimeter=0;exitX=1;exitY=0.5;exitDx=0;exitDy=0;" edge="1" parent="WIyWlLk6GJQsqaUBKTNV-1" source="frSgxrHvrcFcjkGgJCsm-42" target="BvnakJqivRJq1G5SyChi-1">
          <mxGeometry width="50" height="50" relative="1" as="geometry">
            <mxPoint x="690" y="-140" as="sourcePoint" />
            <mxPoint x="740" y="-190" as="targetPoint" />
          </mxGeometry>
        </mxCell>
        <mxCell id="H_CMYaS09ooLMEQShiIc-6" value="" style="endArrow=classic;startArrow=classic;html=1;rounded=0;exitX=1;exitY=0.5;exitDx=0;exitDy=0;entryX=0;entryY=0.5;entryDx=0;entryDy=0;" edge="1" parent="WIyWlLk6GJQsqaUBKTNV-1" source="frSgxrHvrcFcjkGgJCsm-25" target="frSgxrHvrcFcjkGgJCsm-20">
          <mxGeometry width="50" height="50" relative="1" as="geometry">
            <mxPoint x="690" y="-130" as="sourcePoint" />
            <mxPoint x="740" y="-180" as="targetPoint" />
          </mxGeometry>
        </mxCell>
        <mxCell id="H_CMYaS09ooLMEQShiIc-7" value="" style="endArrow=classic;html=1;rounded=0;exitX=0;exitY=0.5;exitDx=0;exitDy=0;entryX=1;entryY=0.5;entryDx=0;entryDy=0;" edge="1" parent="WIyWlLk6GJQsqaUBKTNV-1" source="frSgxrHvrcFcjkGgJCsm-10" target="frSgxrHvrcFcjkGgJCsm-6">
          <mxGeometry width="50" height="50" relative="1" as="geometry">
            <mxPoint x="690" y="-130" as="sourcePoint" />
            <mxPoint x="740" y="-180" as="targetPoint" />
          </mxGeometry>
        </mxCell>
      </root>
    </mxGraphModel>
  </diagram>
</mxfile>
